<svg width="37" height="37" viewBox="0 0 37 37" fill="none" xmlns="http://www.w3.org/2000/svg">
<path d="M0.000269315 23.182L0.000270118 13.9977C0.00232062 12.8273 0.468812 11.7055 1.2973 10.8788C2.12579 10.0521 3.24854 9.58792 4.41897 9.58834C4.49483 9.58834 4.57379 9.58834 4.64811 9.58834C5.88546 9.59369 7.07427 9.10738 7.95313 8.23637C8.83198 7.36535 9.32892 6.18094 9.33465 4.94359C9.33465 4.90334 9.33465 4.86463 9.33465 4.82438L9.33465 4.81509C9.33681 3.94113 9.59817 3.08746 10.0857 2.36209C10.5731 1.63673 11.2649 1.07228 12.0733 0.740171C12.8817 0.408063 13.7704 0.323225 14.627 0.496395C15.4837 0.669565 16.2697 1.09296 16.8856 1.713C17.5015 2.33303 17.9196 3.12185 18.0871 3.97961C18.2546 4.83737 18.1638 5.72554 17.8263 6.5317C17.4888 7.33787 16.9198 8.0258 16.1912 8.50845C15.4626 8.99109 14.6072 9.24675 13.7332 9.24308C13.6558 9.24308 13.5784 9.24308 13.5041 9.24308C12.2681 9.24308 11.0826 9.73344 10.2077 10.6066C9.33285 11.4797 8.84013 12.6642 8.83767 13.9002C8.83767 13.9343 8.83767 13.9683 8.83767 14.0039L8.83766 23.182C8.816 24.3393 8.34102 25.442 7.51485 26.2528C6.68869 27.0637 5.57733 27.5179 4.41974 27.5179C3.26215 27.5179 2.15079 27.0637 1.32463 26.2528C0.498463 25.442 0.0234836 24.3393 0.00181617 23.182L0.000269315 23.182Z" fill="#32E388"/>
<path d="M18.6315 14.0487C18.6331 13.1746 18.8939 12.3206 19.381 11.5949C19.8681 10.8691 20.5596 10.3041 21.368 9.97157C22.1763 9.63898 23.0652 9.5537 23.922 9.72653C24.7788 9.89935 25.5651 10.3225 26.1814 10.9424C26.7976 11.5623 27.216 12.3511 27.3838 13.209C27.5515 14.0668 27.4609 14.9552 27.1235 15.7615C26.7861 16.5679 26.217 17.256 25.4884 17.7387C24.7597 18.2215 23.9042 18.4773 23.0301 18.4736C21.8605 18.4687 20.7406 18.0001 19.916 17.1705C19.0914 16.341 18.6295 15.2183 18.6315 14.0487Z" fill="#32E388"/>
<path d="M18.6315 4.72534C18.6331 3.85125 18.8939 2.99727 19.381 2.27149C19.8681 1.54572 20.5596 0.980788 21.368 0.648204C22.1763 0.315622 23.0652 0.230342 23.922 0.403165C24.7788 0.575986 25.5651 0.999136 26.1814 1.61905C26.7976 2.23897 27.216 3.02777 27.3838 3.88562C27.5515 4.74347 27.4609 5.6318 27.1235 6.43814C26.7861 7.24449 26.217 7.93261 25.4884 8.41539C24.7597 8.89817 23.9042 9.1539 23.0301 9.15023C21.8605 9.14531 20.7406 8.6767 19.916 7.84718C19.0914 7.01767 18.6295 5.89497 18.6315 4.72534Z" fill="#D9E3E3"/>
<path d="M9.31317 23.3987C9.31501 22.5245 9.57619 21.6706 10.0636 20.945C10.5511 20.2193 11.2429 19.6546 12.0514 19.3224C12.86 18.9901 13.7489 18.9053 14.6057 19.0785C15.4626 19.2518 16.2487 19.6753 16.8647 20.2956C17.4806 20.9159 17.8986 21.705 18.0659 22.563C18.2331 23.421 18.142 24.3094 17.8041 25.1156C17.4662 25.9218 16.8966 26.6096 16.1676 27.0919C15.4385 27.5743 14.5828 27.8294 13.7086 27.8251C12.5392 27.8198 11.4196 27.3508 10.5955 26.5209C9.77146 25.6911 9.31028 24.5682 9.31317 23.3987Z" fill="#6B32E3"/>
<path d="M36.7773 14.2175L36.7773 23.4017C36.7753 24.5718 36.309 25.6934 35.4809 26.5201C34.6527 27.3468 33.5304 27.8111 32.3602 27.8111C32.2843 27.8111 32.2054 27.8111 32.1311 27.8111C30.8937 27.8057 29.7049 28.292 28.826 29.163C27.9472 30.0341 27.4502 31.2185 27.4445 32.4558C27.4445 32.4961 27.4445 32.5348 27.4445 32.575L27.4445 32.5843C27.4424 33.4583 27.181 34.312 26.6935 35.0373C26.206 35.7627 25.5143 36.3271 24.7059 36.6592C23.8975 36.9914 23.0088 37.0762 22.1521 36.903C21.2955 36.7298 20.5095 36.3065 19.8936 35.6864C19.2777 35.0664 18.8595 34.2776 18.6921 33.4198C18.5246 32.562 18.6154 31.6739 18.9528 30.8677C19.2903 30.0615 19.8594 29.3736 20.588 28.891C21.3166 28.4083 22.172 28.1527 23.0459 28.1563C23.1233 28.1563 23.2008 28.1563 23.2751 28.1563C24.51 28.1563 25.6946 27.6668 26.5693 26.7951C27.4439 25.9233 27.9374 24.7403 27.9415 23.5054C27.9415 23.4713 27.9415 23.4373 27.9415 23.4017L27.9415 14.2175C27.9632 13.0601 28.4381 11.9574 29.2643 11.1466C30.0905 10.3357 31.2018 9.88147 32.3594 9.88147C33.517 9.88147 34.6284 10.3357 35.4545 11.1466C36.2807 11.9574 36.7557 13.0601 36.7773 14.2175Z" fill="#32E388"/>
<path d="M18.1455 32.5906C18.144 33.4647 17.8831 34.3187 17.396 35.0445C16.9089 35.7702 16.2174 36.3352 15.409 36.6678C14.6007 37.0003 13.7118 37.0856 12.855 36.9128C11.9982 36.74 11.2119 36.3168 10.5957 35.6969C9.97942 35.077 9.56097 34.2882 9.39327 33.4303C9.22556 32.5725 9.31614 31.6842 9.65354 30.8778C9.99094 30.0715 10.56 29.3834 11.2887 28.9006C12.0173 28.4178 12.8728 28.1621 13.7469 28.1657C14.9165 28.1707 16.0365 28.6393 16.8611 29.4688C17.6856 30.2983 18.1476 31.421 18.1455 32.5906Z" fill="#6B32E3"/>
<path d="M22.9978 27.8158C21.9381 27.81 20.9148 27.4286 20.1097 26.7395C19.3046 26.0504 18.77 25.0981 18.6008 24.052C18.5388 23.6618 18.5543 23.2608 18.5141 22.866C18.4123 21.717 17.885 20.6474 17.0355 19.8671C16.1403 19.0136 14.945 18.547 13.7083 18.5681C12.9193 18.5568 12.1473 18.3364 11.4712 17.9295C10.7951 17.5225 10.239 16.9436 9.85967 16.2516C9.4803 15.5597 9.29123 14.7795 9.31172 13.9906C9.33222 13.2018 9.56156 12.4324 9.97634 11.7611C10.3911 11.0898 10.9765 10.5405 11.6729 10.1692C12.3692 9.79793 13.1515 9.61795 13.9401 9.64762C14.7286 9.6773 15.4952 9.91558 16.1617 10.3382C16.8281 10.7607 17.3706 11.3525 17.7337 12.0531C18.0663 12.7066 18.2382 13.4301 18.2354 14.1633C18.2478 15.2739 18.6479 16.3452 19.3666 17.1919C20.0853 18.0387 21.0773 18.6076 22.171 18.8003C22.4622 18.8491 22.7568 18.8739 23.052 18.8747C24.1692 18.8861 25.2415 19.3162 26.057 20.0798C26.8725 20.8435 27.372 21.8852 27.4568 22.9992C27.5416 24.1133 27.2056 25.2186 26.515 26.0969C25.8244 26.9752 24.8296 27.5626 23.727 27.743C23.4824 27.7833 23.2362 27.7926 22.9978 27.8158Z" fill="#D9E3E3"/>
</svg>
